<svg width="375" height="667" viewBox="0 0 375 667" fill="none" xmlns="http://www.w3.org/2000/svg">
<rect width="375" height="667" fill="#E5E5E5"/>
<rect width="375" height="667" fill="white"/>
<g filter="url(#filter0_d)">
<path d="M144.375 145.141C144.375 143.906 144.32 142.68 144.211 141.461C144.117 140.227 143.945 139.055 143.695 137.945C143.461 136.82 143.148 135.781 142.758 134.828C142.383 133.859 141.914 133.023 141.352 132.32C140.789 131.602 140.125 131.039 139.359 130.633C138.609 130.227 137.75 130.023 136.781 130.023C135.391 130.023 134.141 130.43 133.031 131.242C131.938 132.039 131 133.117 130.219 134.477C129.438 135.82 128.836 137.375 128.414 139.141C128.008 140.891 127.805 142.719 127.805 144.625C127.805 146.734 128.031 148.648 128.484 150.367C128.953 152.07 129.539 153.594 130.242 154.938C130.945 156.281 131.711 157.453 132.539 158.453C133.367 159.453 134.141 160.281 134.859 160.938C135.594 161.594 136.219 162.094 136.734 162.438C137.266 162.781 137.57 162.969 137.648 163H128.672C128.375 162.859 127.961 162.547 127.43 162.062C126.914 161.578 126.336 160.953 125.695 160.188C125.07 159.422 124.43 158.531 123.773 157.516C123.133 156.484 122.547 155.367 122.016 154.164C121.484 152.945 121.047 151.648 120.703 150.273C120.375 148.883 120.211 147.445 120.211 145.961C120.211 145.055 120.289 143.992 120.445 142.773C120.617 141.555 120.922 140.305 121.359 139.023C121.797 137.727 122.391 136.453 123.141 135.203C123.906 133.953 124.875 132.836 126.047 131.852C127.219 130.867 128.625 130.07 130.266 129.461C131.906 128.852 133.836 128.547 136.055 128.547C137.523 128.547 138.852 128.688 140.039 128.969C141.242 129.234 142.328 129.609 143.297 130.094C144.266 130.562 145.125 131.117 145.875 131.758C146.625 132.398 147.289 133.086 147.867 133.82C148.445 133.086 149.133 132.398 149.93 131.758C150.727 131.117 151.641 130.562 152.672 130.094C153.703 129.609 154.867 129.234 156.164 128.969C157.477 128.688 158.938 128.547 160.547 128.547C162.703 128.547 164.602 128.789 166.242 129.273C167.898 129.758 169.328 130.414 170.531 131.242C171.75 132.055 172.758 133 173.555 134.078C174.367 135.141 175.016 136.258 175.5 137.43C176 138.586 176.352 139.766 176.555 140.969C176.758 142.156 176.859 143.273 176.859 144.32C176.859 146.289 176.562 148.086 175.969 149.711C175.375 151.32 174.609 152.773 173.672 154.07C172.734 155.352 171.68 156.492 170.508 157.492C169.352 158.492 168.203 159.359 167.062 160.094C165.922 160.812 164.852 161.414 163.852 161.898C162.867 162.367 162.07 162.734 161.461 163H159.398C159.477 162.969 159.773 162.781 160.289 162.438C160.805 162.078 161.43 161.562 162.164 160.891C162.898 160.219 163.68 159.375 164.508 158.359C165.336 157.344 166.102 156.148 166.805 154.773C167.508 153.398 168.094 151.844 168.562 150.109C169.031 148.359 169.266 146.414 169.266 144.273C169.266 142.07 169.008 140.086 168.492 138.32C167.977 136.555 167.281 135.062 166.406 133.844C165.547 132.609 164.547 131.664 163.406 131.008C162.266 130.352 161.07 130.023 159.82 130.023C158.82 130.023 157.93 130.227 157.148 130.633C156.367 131.039 155.68 131.602 155.086 132.32C154.492 133.023 153.984 133.859 153.562 134.828C153.156 135.781 152.82 136.82 152.555 137.945C152.289 139.055 152.094 140.227 151.969 141.461C151.859 142.68 151.805 143.906 151.805 145.141V163H144.375V145.141Z" fill="black"/>
<path d="M144.211 141.461L143.214 141.537L143.215 141.55L144.211 141.461ZM143.695 137.945L142.716 138.149L142.718 138.157L142.72 138.165L143.695 137.945ZM142.758 134.828L141.825 135.189L141.829 135.198L141.833 135.207L142.758 134.828ZM141.352 132.32L140.564 132.937L140.571 132.945L141.352 132.32ZM139.359 130.633L138.883 131.512L138.891 131.516L139.359 130.633ZM133.031 131.242L133.62 132.05L133.622 132.049L133.031 131.242ZM130.219 134.477L131.083 134.979L131.086 134.975L130.219 134.477ZM128.414 139.141L127.441 138.908L127.44 138.914L128.414 139.141ZM128.484 150.367L127.517 150.622L127.52 150.633L128.484 150.367ZM134.859 160.938L134.185 161.676L134.193 161.683L134.859 160.938ZM136.734 162.438L136.18 163.27L136.191 163.277L136.734 162.438ZM137.648 163V164L138.02 162.072L137.648 163ZM128.672 163L128.244 163.904L128.447 164H128.672V163ZM127.43 162.062L126.745 162.791L126.75 162.796L126.756 162.801L127.43 162.062ZM125.695 160.188L124.921 160.82L124.928 160.829L125.695 160.188ZM123.773 157.516L122.924 158.043L122.929 158.051L122.934 158.058L123.773 157.516ZM122.016 154.164L121.099 154.564L121.101 154.568L122.016 154.164ZM120.703 150.273L119.73 150.503L119.733 150.516L120.703 150.273ZM120.445 142.773L119.455 142.634L119.453 142.646L120.445 142.773ZM121.359 139.023L122.306 139.347L122.307 139.343L121.359 139.023ZM123.141 135.203L122.288 134.681L122.283 134.689L123.141 135.203ZM140.039 128.969L139.809 129.942L139.816 129.944L139.823 129.945L140.039 128.969ZM143.297 130.094L142.85 130.988L142.861 130.994L143.297 130.094ZM147.867 133.82L147.081 134.439L147.867 135.437L148.653 134.439L147.867 133.82ZM152.672 130.094L153.086 131.004L153.097 130.999L152.672 130.094ZM156.164 128.969L156.365 129.948L156.374 129.947L156.164 128.969ZM166.242 129.273L165.959 130.233L165.961 130.233L166.242 129.273ZM170.531 131.242L169.964 132.066L169.97 132.07L169.977 132.074L170.531 131.242ZM173.555 134.078L172.751 134.673L172.755 134.679L172.76 134.686L173.555 134.078ZM175.5 137.43L174.576 137.812L174.579 137.819L174.582 137.827L175.5 137.43ZM176.555 140.969L175.569 141.135L175.569 141.137L176.555 140.969ZM175.969 149.711L176.907 150.057L176.908 150.054L175.969 149.711ZM173.672 154.07L174.479 154.661L174.482 154.656L173.672 154.07ZM170.508 157.492L169.859 156.731L169.854 156.736L170.508 157.492ZM167.062 160.094L167.596 160.94L167.604 160.935L167.062 160.094ZM163.852 161.898L164.282 162.801L164.287 162.798L163.852 161.898ZM161.461 163V164H161.669L161.861 163.917L161.461 163ZM159.398 163L159.027 162.072L159.398 164V163ZM160.289 162.438L160.844 163.27L160.852 163.264L160.861 163.258L160.289 162.438ZM168.562 150.109L169.528 150.37L169.528 150.368L168.562 150.109ZM166.406 133.844L165.586 134.415L165.59 134.421L165.594 134.427L166.406 133.844ZM155.086 132.32L155.85 132.966L155.857 132.957L155.086 132.32ZM153.562 134.828L152.646 134.429L152.643 134.436L153.562 134.828ZM152.555 137.945L153.527 138.178L153.528 138.175L152.555 137.945ZM151.969 141.461L150.974 141.36L150.973 141.372L151.969 141.461ZM151.805 163V164H152.805V163H151.805ZM144.375 163H143.375V164H144.375V163ZM145.375 145.141C145.375 143.877 145.319 142.62 145.207 141.372L143.215 141.55C143.322 142.739 143.375 143.936 143.375 145.141H145.375ZM145.208 141.385C145.111 140.107 144.932 138.886 144.671 137.725L142.72 138.165C142.958 139.223 143.123 140.347 143.214 141.537L145.208 141.385ZM144.674 137.741C144.429 136.563 144.099 135.465 143.683 134.449L141.833 135.207C142.197 136.098 142.493 137.077 142.716 138.149L144.674 137.741ZM143.69 134.467C143.284 133.418 142.768 132.49 142.132 131.696L140.571 132.945C141.061 133.557 141.482 134.301 141.825 135.189L143.69 134.467ZM142.139 131.704C141.495 130.881 140.724 130.225 139.828 129.749L138.891 131.516C139.526 131.853 140.083 132.322 140.564 132.937L142.139 131.704ZM139.836 129.754C138.921 129.258 137.893 129.023 136.781 129.023V131.023C137.607 131.023 138.298 131.195 138.883 131.512L139.836 129.754ZM136.781 129.023C135.181 129.023 133.723 129.496 132.44 130.435L133.622 132.049C134.558 131.364 135.601 131.023 136.781 131.023V129.023ZM132.442 130.434C131.219 131.326 130.192 132.516 129.352 133.978L131.086 134.975C131.808 133.718 132.656 132.753 133.62 132.05L132.442 130.434ZM129.354 133.974C128.517 135.415 127.882 137.063 127.441 138.908L129.387 139.373C129.79 137.687 130.358 136.226 131.083 134.979L129.354 133.974ZM127.44 138.914C127.015 140.743 126.805 142.647 126.805 144.625H128.805C128.805 142.79 129 141.038 129.388 139.367L127.44 138.914ZM126.805 144.625C126.805 146.805 127.039 148.806 127.517 150.622L129.451 150.112C129.024 148.49 128.805 146.664 128.805 144.625H126.805ZM127.52 150.633C128.005 152.393 128.615 153.985 129.356 155.401L131.128 154.474C130.463 153.203 129.901 151.747 129.449 150.102L127.52 150.633ZM129.356 155.401C130.086 156.797 130.889 158.029 131.769 159.091L133.309 157.815C132.532 156.877 131.804 155.766 131.128 154.474L129.356 155.401ZM131.769 159.091C132.617 160.116 133.423 160.98 134.185 161.676L135.534 160.199C134.858 159.582 134.117 158.791 133.309 157.815L131.769 159.091ZM134.193 161.683C134.945 162.355 135.609 162.889 136.18 163.27L137.289 161.605C136.829 161.298 136.243 160.833 135.526 160.192L134.193 161.683ZM136.191 163.277C136.459 163.45 136.675 163.588 136.837 163.688C136.959 163.763 137.139 163.873 137.277 163.928L138.02 162.072C138.073 162.093 138.095 162.109 138.044 162.079C138.009 162.059 137.957 162.028 137.885 161.984C137.743 161.896 137.541 161.768 137.278 161.598L136.191 163.277ZM137.648 162H128.672V164H137.648V162ZM129.1 162.096C128.948 162.024 128.627 161.801 128.103 161.324L126.756 162.801C127.295 163.293 127.802 163.695 128.244 163.904L129.1 162.096ZM128.114 161.334C127.637 160.885 127.087 160.292 126.462 159.546L124.928 160.829C125.585 161.614 126.191 162.271 126.745 162.791L128.114 161.334ZM126.47 159.555C125.873 158.824 125.254 157.964 124.613 156.973L122.934 158.058C123.606 159.098 124.268 160.02 124.921 160.82L126.47 159.555ZM124.623 156.988C124.009 155.999 123.444 154.924 122.93 153.76L121.101 154.568C121.649 155.81 122.257 156.969 122.924 158.043L124.623 156.988ZM122.932 153.764C122.425 152.6 122.004 151.356 121.673 150.031L119.733 150.516C120.089 151.941 120.544 153.291 121.099 154.564L122.932 153.764ZM121.676 150.044C121.367 148.731 121.211 147.371 121.211 145.961H119.211C119.211 147.52 119.383 149.034 119.73 150.503L121.676 150.044ZM121.211 145.961C121.211 145.109 121.285 144.091 121.437 142.901L119.453 142.646C119.294 143.893 119.211 145 119.211 145.961H121.211ZM121.436 142.913C121.598 141.763 121.887 140.574 122.306 139.347L120.413 138.7C119.957 140.035 119.637 141.347 119.455 142.634L121.436 142.913ZM122.307 139.343C122.72 138.118 123.283 136.91 123.998 135.718L122.283 134.689C121.499 135.996 120.874 137.335 120.412 138.704L122.307 139.343ZM123.993 135.725C124.7 134.571 125.597 133.535 126.69 132.617L125.404 131.086C124.153 132.136 123.112 133.335 122.288 134.681L123.993 135.725ZM126.69 132.617C127.763 131.716 129.065 130.973 130.614 130.398L129.917 128.524C128.185 129.167 126.675 130.018 125.404 131.086L126.69 132.617ZM130.614 130.398C132.118 129.84 133.924 129.547 136.055 129.547V127.547C133.748 127.547 131.695 127.863 129.917 128.524L130.614 130.398ZM136.055 129.547C137.461 129.547 138.71 129.682 139.809 129.942L140.27 127.996C138.993 127.693 137.586 127.547 136.055 127.547V129.547ZM139.823 129.945C140.957 130.196 141.964 130.545 142.85 130.988L143.744 129.199C142.693 128.674 141.527 128.273 140.255 127.992L139.823 129.945ZM142.861 130.994C143.76 131.429 144.546 131.938 145.226 132.518L146.524 130.997C145.704 130.296 144.771 129.696 143.732 129.194L142.861 130.994ZM145.226 132.518C145.928 133.118 146.546 133.759 147.081 134.439L148.653 133.202C148.032 132.413 147.322 131.678 146.524 130.997L145.226 132.518ZM148.653 134.439C149.18 133.769 149.813 133.135 150.556 132.537L149.303 130.978C148.453 131.662 147.711 132.403 147.081 133.202L148.653 134.439ZM150.556 132.537C151.281 131.954 152.122 131.442 153.086 131.004L152.258 129.183C151.159 129.683 150.172 130.28 149.303 130.978L150.556 132.537ZM153.097 130.999C154.046 130.553 155.133 130.201 156.365 129.948L155.963 127.989C154.601 128.268 153.36 128.666 152.247 129.189L153.097 130.999ZM156.374 129.947C157.605 129.683 158.994 129.547 160.547 129.547V127.547C158.881 127.547 157.348 127.692 155.955 127.991L156.374 129.947ZM160.547 129.547C162.631 129.547 164.431 129.781 165.959 130.233L166.525 128.314C164.773 127.797 162.775 127.547 160.547 127.547V129.547ZM165.961 130.233C167.534 130.693 168.863 131.308 169.964 132.066L171.098 130.418C169.793 129.52 168.263 128.823 166.523 128.314L165.961 130.233ZM169.977 132.074C171.108 132.828 172.029 133.696 172.751 134.673L174.359 133.484C173.487 132.304 172.392 131.281 171.086 130.41L169.977 132.074ZM172.76 134.686C173.523 135.683 174.126 136.725 174.576 137.812L176.424 137.048C175.905 135.791 175.212 134.599 174.349 133.471L172.76 134.686ZM174.582 137.827C175.051 138.911 175.379 140.014 175.569 141.135L177.541 140.802C177.324 139.517 176.949 138.26 176.418 137.033L174.582 137.827ZM175.569 141.137C175.764 142.277 175.859 143.338 175.859 144.32H177.859C177.859 143.209 177.752 142.035 177.54 140.8L175.569 141.137ZM175.859 144.32C175.859 146.188 175.578 147.867 175.029 149.368L176.908 150.054C177.547 148.305 177.859 146.39 177.859 144.32H175.859ZM175.031 149.365C174.466 150.895 173.742 152.266 172.861 153.484L174.482 154.656C175.477 153.28 176.284 151.746 176.907 150.057L175.031 149.365ZM172.865 153.48C171.972 154.7 170.97 155.783 169.859 156.732L171.157 158.253C172.39 157.201 173.497 156.003 174.479 154.661L172.865 153.48ZM169.854 156.736C168.729 157.709 167.618 158.547 166.521 159.253L167.604 160.935C168.789 160.172 169.975 159.276 171.162 158.249L169.854 156.736ZM166.529 159.248C165.414 159.951 164.376 160.533 163.416 160.998L164.287 162.798C165.327 162.295 166.43 161.674 167.596 160.94L166.529 159.248ZM163.422 160.996C162.442 161.462 161.656 161.824 161.061 162.083L161.861 163.917C162.484 163.645 163.293 163.272 164.281 162.801L163.422 160.996ZM161.461 162H159.398V164H161.461V162ZM159.77 163.928C159.914 163.871 160.097 163.755 160.214 163.681C160.372 163.581 160.583 163.443 160.844 163.27L159.734 161.605C159.479 161.776 159.284 161.903 159.146 161.99C159.076 162.034 159.027 162.065 158.994 162.083C158.944 162.113 158.969 162.095 159.027 162.072L159.77 163.928ZM160.861 163.258C161.427 162.863 162.089 162.315 162.839 161.628L161.489 160.153C160.771 160.81 160.182 161.293 159.717 161.617L160.861 163.258ZM162.839 161.628C163.618 160.915 164.433 160.034 165.283 158.991L163.733 157.727C162.926 158.716 162.178 159.522 161.489 160.153L162.839 161.628ZM165.283 158.991C166.163 157.912 166.965 156.656 167.695 155.229L165.914 154.318C165.238 155.641 164.509 156.775 163.733 157.727L165.283 158.991ZM167.695 155.229C168.435 153.783 169.044 152.161 169.528 150.37L167.597 149.848C167.144 151.526 166.581 153.014 165.914 154.318L167.695 155.229ZM169.528 150.368C170.023 148.52 170.266 146.486 170.266 144.273H168.266C168.266 146.342 168.039 148.199 167.597 149.851L169.528 150.368ZM170.266 144.273C170.266 141.994 169.999 139.913 169.452 138.04L167.532 138.601C168.017 140.259 168.266 142.147 168.266 144.273H170.266ZM169.452 138.04C168.912 136.189 168.173 134.589 167.219 133.261L165.594 134.427C166.39 135.536 167.041 136.92 167.532 138.601L169.452 138.04ZM167.227 133.272C166.295 131.934 165.19 130.881 163.905 130.141L162.908 131.875C163.903 132.447 164.798 133.284 165.586 134.415L167.227 133.272ZM163.905 130.141C162.621 129.402 161.255 129.023 159.82 129.023V131.023C160.886 131.023 161.91 131.301 162.908 131.875L163.905 130.141ZM159.82 129.023C158.682 129.023 157.629 129.256 156.687 129.746L157.61 131.52C158.23 131.197 158.959 131.023 159.82 131.023V129.023ZM156.687 129.746C155.78 130.217 154.989 130.867 154.315 131.683L155.857 132.957C156.37 132.336 156.954 131.861 157.61 131.52L156.687 129.746ZM154.322 131.675C153.657 132.462 153.101 133.384 152.646 134.429L154.479 135.227C154.868 134.335 155.327 133.584 155.85 132.965L154.322 131.675ZM152.643 134.436C152.212 135.447 151.859 136.541 151.581 137.716L153.528 138.175C153.782 137.099 154.101 136.115 154.482 135.22L152.643 134.436ZM151.582 137.712C151.305 138.869 151.103 140.085 150.974 141.36L152.964 141.562C153.085 140.368 153.273 139.24 153.527 138.178L151.582 137.712ZM150.973 141.372C150.861 142.62 150.805 143.877 150.805 145.141H152.805C152.805 143.936 152.858 142.739 152.965 141.55L150.973 141.372ZM150.805 145.141V163H152.805V145.141H150.805ZM151.805 162H144.375V164H151.805V162ZM145.375 163V145.141H143.375V163H145.375Z" fill="black"/>
</g>
<line x1="134.764" y1="161.882" x2="157.764" y2="115.882" stroke="black" stroke-width="5"/>
<defs>
<filter id="filter0_d" x="115.211" y="127.547" width="66.6484" height="44.4531" filterUnits="userSpaceOnUse" color-interpolation-filters="sRGB">
<feFlood flood-opacity="0" result="BackgroundImageFix"/>
<feColorMatrix in="SourceAlpha" type="matrix" values="0 0 0 0 0 0 0 0 0 0 0 0 0 0 0 0 0 0 127 0" result="hardAlpha"/>
<feOffset dy="4"/>
<feGaussianBlur stdDeviation="2"/>
<feComposite in2="hardAlpha" operator="out"/>
<feColorMatrix type="matrix" values="0 0 0 0 0 0 0 0 0 0 0 0 0 0 0 0 0 0 0.25 0"/>
<feBlend mode="normal" in2="BackgroundImageFix" result="effect1_dropShadow"/>
<feBlend mode="normal" in="SourceGraphic" in2="effect1_dropShadow" result="shape"/>
</filter>
</defs>
</svg>
